<svg xmlns="http://www.w3.org/2000/svg" viewBox="0 0 48 41" id="audiobook"><rect width="100%" height="100%" fill="none"/><g class="currentLayer"><path d="M3 38.09h16.052a4.904 4.904 0 004.436 2.777h1.014a4.903 4.903 0 004.437-2.777H45c1.654 0 3-1.346 3-3V6.34c0-1.654-1.346-3-3-3h-1.62V2c0-1.103-.898-2-2-2H6.61c-1.102 0-2 .897-2 2v1.34H3c-1.654 0-3 1.346-3 3v28.75c0 1.654 1.346 3 3 3zm38.378-6.17H25V8.682c3.786.495 6.72 3.734 6.72 7.652v.902l-.237-.052a1 1 0 00-1.191.762L28.7 25.19a1 1 0 00.762 1.19l3.44.758c.178.038.359.057.54.057 1.21 0 2.24-.827 2.503-2.014l.921-4.19a2.564 2.564 0 00-1.948-3.05l-1.197-.264v-1.343c0-5.023-3.83-9.168-8.721-9.673V2h16.38l-.002 29.92zM32.03 19.353l2.456.54c.307.069.494.36.427.668l-.92 4.188a.592.592 0 01-.667.435l-2.459-.542 1.163-5.29zM6.61 2H23v4.66c-4.897.5-8.73 4.648-8.73 9.674v1.342l-1.2.265a2.544 2.544 0 00-1.604 1.121 2.533 2.533 0 00-.341 1.927l.919 4.185a2.57 2.57 0 003.052 1.963l3.425-.757a1 1 0 00.761-1.19l-1.592-7.244a.998.998 0 00-1.192-.762l-.228.05v-.9c0-3.921 2.94-7.163 6.73-7.654v23.24H6.61V2zm9.342 17.354l1.164 5.288-2.445.54a.568.568 0 01-.672-.43l-.92-4.194a.547.547 0 01.071-.419.56.56 0 01.352-.245l2.45-.54zM2 6.34c0-.551.448-1 1-1h1.61v26.58c0 1.103.898 2 2 2h34.77c1.102 0 2-.897 2-2V5.34H45c.552 0 1 .449 1 1v28.75c0 .551-.448 1-1 1H28.26a1 1 0 00-.956.706 2.915 2.915 0 01-2.802 2.07h-1.014a2.925 2.925 0 01-2.805-2.081 1 1 0 00-.953-.695H3c-.552 0-1-.449-1-1V6.34z"/></g></svg>