<svg xmlns="http://www.w3.org/2000/svg" viewBox="0 0 70 58" id="check"><rect width="100%" height="100%" fill="none"/><g class="currentLayer"><path fill="rgb(225, 107, 29)" d="M62.169 2.731c-2.678 1.198-5.245 2.661-7.695 4.293-4.927 3.242-9.432 7.102-13.658 11.219-4.223 4.127-8.155 8.543-11.873 13.135-.93 1.148-5.093 6.261-5.093 6.261L6.536 11.694 0 29.812l23.414 27.923c2.274-4.603 4.462-9.147 6.608-13.095.533-1.004 1.092-1.949 1.625-2.908 0 0 2.748-4.83 3.47-6.047 2.89-4.866 6.013-9.607 9.453-14.11C48.013 17.08 51.756 12.789 56 9.016c2.11-1.898 4.358-3.654 6.766-5.182C65.169 2.304 67.722.964 70.454 0c-2.842.559-5.614 1.53-8.285 2.731z"/></g></svg>