<svg xmlns="http://www.w3.org/2000/svg" viewBox="0 0 86 92" id="list"><rect width="100%" height="100%" fill="none"/><g class="currentLayer"><g><path d="M85.435 14.323l-.002-.007a.81.81 0 00-.069-.13l-.007-.009a.792.792 0 00-.097-.121L71.443.24a.753.753 0 00-.117-.094L71.3.129a.87.87 0 00-.104-.056c-.011-.005-.021-.01-.031-.013a.837.837 0 00-.284-.058l-.015-.001H9.998a.816.816 0 00-.816.817v84.268a.79.79 0 00.016.16c.005.023.013.044.02.066.009.029.016.058.027.086.011.025.025.049.039.074.012.021.022.045.036.066.028.041.06.08.094.115.003.003.004.007.008.009l6.223 6.222a.817.817 0 001.155 0l5.648-5.645 5.646 5.645a.813.813 0 001.155 0l5.645-5.644 5.648 5.644a.817.817 0 001.155 0l5.645-5.644 5.645 5.644a.815.815 0 001.154 0l5.65-5.645 5.645 5.645a.814.814 0 001.155 0l5.645-5.644 5.649 5.644a.815.815 0 001.154 0l6.223-6.222c.012-.012.021-.026.032-.039.023-.027.048-.054.068-.084.019-.027.032-.058.047-.087.01-.019.021-.035.027-.054.017-.037.025-.075.035-.113.004-.013.01-.025.013-.038a.852.852 0 00.017-.167V14.635a.859.859 0 00-.066-.312zM71.681 2.79l11.028 11.027H71.681V2.79zm12.183 81.956l-5.405 5.405-5.649-5.645a.817.817 0 00-1.154 0l-5.645 5.645-5.645-5.645a.818.818 0 00-1.155 0l-5.649 5.645-5.644-5.642-.001-.003a.815.815 0 00-1.155 0l-.001.001-5.644 5.644-5.648-5.645a.818.818 0 00-1.155 0l-5.645 5.645-5.646-5.645a.818.818 0 00-1.155 0l-5.648 5.645-5.406-5.405V1.633h59.234v13c0 .451.366.817.817.817h12.998l.001 69.296z"/><path d="M16.904 9.359H43.65a.817.817 0 000-1.634H16.904a.817.817 0 100 1.634zM16.904 14.41h42.891a.817.817 0 000-1.634H16.904a.817.817 0 100 1.634zM16.087 18.944V45.39c0 .451.365.817.817.817h60.87a.816.816 0 00.816-.817V18.944a.816.816 0 00-.816-.817h-60.87a.817.817 0 00-.817.817zm18.051.817h42.818v7.029H34.138v-7.029zm0 8.663h42.818v7.026H34.138v-7.026zm0 8.659h42.818v7.49H34.138v-7.49zM17.721 19.761h14.784v7.029H17.721v-7.029zm0 8.663h14.784v7.026H17.721v-7.026zm0 8.659h14.784v7.49H17.721v-7.49zM77.774 49.882h-60.87a.817.817 0 00-.817.817v26.445a.816.816 0 101.633 0v-8.306h14.784v8.306a.816.816 0 001.633 0v-8.306h42.818v8.306a.816.816 0 001.633 0V50.699a.813.813 0 00-.814-.817zM32.505 67.204H17.721v-7.025h14.784v7.025zm0-8.66H17.721v-7.027h14.784v7.027zm44.451 8.66H34.138v-7.025h42.818v7.025zm0-8.66H34.138v-7.027h42.818v7.027zM5.309 0a.817.817 0 00-.817.817v84.268a.817.817 0 001.634 0V.817A.817.817 0 005.309 0zM.817 0A.817.817 0 000 .817v84.268a.817.817 0 001.633 0V.817A.816.816 0 00.817 0z"/></g></g></svg>