<svg xmlns="http://www.w3.org/2000/svg" viewBox="0 0 62 64" id="mobile"><rect width="100%" height="100%" fill="none"/><g><rect width="100%" height="100%" fill="none"/><g class="currentLayer"><path d="M58.152 0h-31a3.664 3.664 0 00-3.66 3.66v12.832L.462 26.158a.749.749 0 00-.096 1.335l2.937 1.758v18.732a3.384 3.384 0 00-2.63 3.295v1.806c0 .414.337.75.75.75h5.26a.75.75 0 00.75-.75v-1.806a3.386 3.386 0 00-2.63-3.293V30.15l2.322 1.39c-.07.535-.01-.934-.033 8.72 0 3.174 8.13 4.874 16.4 4.972V59.85c0 .755.23 1.457.627 2.04a3.656 3.656 0 003.03 1.614h31a3.66 3.66 0 003.657-3.656c0 .1-.004-3.097 0-56.188 0-1.99-1.646-3.66-3.654-3.66zM5.934 51.278v1.056h-3.76v-1.056c0-1.039.842-1.884 1.875-1.884 1.04 0 1.885.845 1.885 1.884zM58.152 62h-31a2.164 2.164 0 01-1.79-.948 2.144 2.144 0 01-.368-1.204V54.78h35.308v5.07a2.17 2.17 0 01-2.15 2.15zm2.15-8.72h-35.31v-8.045c4.038-.046 16.41-.935 16.41-4.975-.005-6.065.01-8.524-.02-8.733l6.736-4.034a.75.75 0 00-.096-1.335l-23.03-9.666v-6.264h35.31V53.28zm-36.06-18c-4.16 0-12.17.538-15.65 2.81.022-6.95-.24-6.498.615-7.087C11.369 29.41 17.55 28.3 24.242 28.3c2.918 0 15.66.802 15.66 3.5v6.29c-3.513-2.293-11.482-2.81-15.66-2.81zm.752-31.62c0-1.189.967-2.156 2.156-2.156h31c1.19 0 2.152.98 2.152 2.156v5.068H24.994V3.66zm-.752 14.144l21.834 9.164-5.41 3.237C37.79 27.353 28.276 26.8 24.242 26.8c-4.038 0-13.553.555-16.423 3.406l-5.412-3.238 21.835-9.164zM8.592 40.26c0-1.214 5.375-3.48 15.65-3.48 10.28 0 15.66 2.266 15.66 3.48 0 1.215-5.38 3.48-15.66 3.48-10.275 0-15.65-2.265-15.65-3.48z"/><path d="M42.65 55.911a2.482 2.482 0 000 4.962c1.368 0 2.48-1.113 2.48-2.481s-1.112-2.48-2.48-2.48zm0 3.462a.981.981 0 11.002-1.961.981.981 0 01-.002 1.961zM39.789 4.366h5.722v1.5h-5.722z"/></g></g></svg>