<svg xmlns="http://www.w3.org/2000/svg" viewBox="0 0 65 65" id="people"><rect width="100%" height="100%" fill="none"/><g class="currentLayer"><g><path d="M4.02 25.325v5.71c0 .307.14.596.381.786a22.384 22.384 0 0013.788 4.764c1.494 0 2.988-.156 4.45-.451a24.237 24.237 0 009.861 2.08c3.443 0 6.759-.704 9.862-2.08 6.233 1.258 12.875-.093 18.236-4.313.24-.19.381-.48.381-.786v-5.71c0-.838-.416-1.601-1.159-2.071l-7.799-4.388c1.706-2.164 2.978-5.247 3.199-7.89.647-4.551-3.062-9.37-8.4-9.37-2.246 0-4.38.924-5.946 2.473-.054.054-.116.1-.168.155-.049.05-.088.109-.134.16-.032.035-.059.073-.09.108C38.957 1.719 36.024 0 32.568 0c-.335 0-.665.023-.992.056-.02-.001-.036-.011-.057-.011a3.73 3.73 0 00-.788.11c-.03.008-.053.03-.082.042a9.04 9.04 0 00-6.076 4.348 8.42 8.42 0 00-6.41-2.939c-7.882 0-11.379 9.301-5.158 17.305l-7.87 4.37a2.404 2.404 0 00-1.115 2.044zm38.323 8.611c-.17.083-.337.171-.507.249l-.004.001a22.19 22.19 0 01-9.332 2.029 22.26 22.26 0 01-13.46-4.492v-5.788c0-.198.096-.373.206-.446l9.16-5.09c1.14.967 2.595 1.676 4.104 1.676 1.453 0 3.022-.72 4.139-1.7l9.048 5.081a.56.56 0 01.263.479v5.787a22.36 22.36 0 01-3.617 2.214zm16.451-8.966a.408.408 0 01.186.355v5.218c-3.97 2.98-8.747 4.331-13.586 3.992a26.607 26.607 0 002.183-1.533c.241-.19.383-.48.383-.787v-6.28c0-.877-.44-1.685-1.23-2.192l-4.807-2.701 1.169-.648c1.417 1.157 2.635 1.5 3.727 1.5 1.336 0 2.743-.655 3.787-1.53l8.188 4.606zM46.819 3.605c2.784 0 5.23 1.82 6.093 4.32-1.68-.199-3.322-1.028-4.51-2.302a1 1 0 00-1.59.169C45.67 7.703 43.8 8.978 41.673 9.341v-.006a9.84 9.84 0 00-.066-1.317l-.015-.134c-.065-.501-.215-1.127-.245-1.228 1.135-1.82 3.245-3.05 5.471-3.05zm-5.364 7.776a9.365 9.365 0 006.38-3.553c1.548 1.269 3.51 2.038 5.45 2.13-.015 3.614-2.967 9.936-6.466 9.936-2.696 0-4.999-3.856-5.859-6.53.219-.688.378-1.349.495-1.983zm.203 7.52l-1.787.99-1.804-1.013a16.05 16.05 0 001.808-2.85 14.649 14.649 0 001.783 2.874zm-2.696-5.864c-.965 2.877-3.438 7.038-6.452 7.038-3.514 0-6.506-5.776-7.076-9.47.152-.037 4.9.255 8.167-4.035 1.658 1.387 3.895 2.306 6.071 2.397.026 1.304-.29 2.836-.71 4.07zM32.568 2c5.606 0 6.673 4.825 6.76 4.925-2.032-.207-3.886-1.202-5.168-2.573a1 1 0 00-1.592.174c-1.11 1.879-2.852 3.204-4.868 3.767a8.692 8.692 0 01-2.352.31C25.622 4.929 28.567 2 32.568 2zM25.13 16.008a15.962 15.962 0 001.84 2.9l-1.765.982-1.829-1.028a15.62 15.62 0 001.754-2.854zM18.162 3.606c2.268 0 4.346 1.151 5.504 3.053-.058.202-.215 1.004-.235 1.105a7.401 7.401 0 01-3.672-2.143.999.999 0 00-1.59.174 7.486 7.486 0 01-6.407 3.66c.318-3.28 3.061-5.849 6.4-5.849zM11.85 11.45a9.494 9.494 0 007.345-3.622 9.326 9.326 0 004.145 1.938c.06 1.16.361 2.568.707 3.607-.552 1.693-1.612 3.712-2.926 5.053-.008.008-.02.012-.027.02-.823.866-1.992 1.45-2.912 1.45-3.215 0-5.73-5.059-6.332-8.446zM6.02 25.325c0-.151.067-.28.135-.326l8.3-4.606c.499.414.613.462.713.535.977.65 1.872.973 3.094.973 1.3 0 2.485-.55 3.527-1.4.059-.046.122-.09.178-.137l1.184.666-4.933 2.744a2.561 2.561 0 00-1.178 2.16v6.28c0 .307.14.597.383.787a26.797 26.797 0 002.184 1.535c-4.91.335-9.686-1.065-13.588-3.993v-5.218z"/><path d="M63.038 41.908a4.157 4.157 0 00-4.048-.222l-12.34 5.962a4.256 4.256 0 00-4.25-4.177l-7.076.002c-3.489-3.034-7.948-4.891-12.003-4.989a502.055 502.055 0 00-9.261-.129v-2.02H0V59.56h14.06v-2.78c3.855 2.211 13.993 7.753 18.804 7.753.11 0 .216-.003.319-.009 8.46-.474 28.416-14.516 29.732-15.449A4.193 4.193 0 0065 45.455c0-1.451-.733-2.776-1.962-3.547zM12.06 57.56H2V38.335h10.06V57.56zm49.826-10.2a.848.848 0 00-.09.056c-.205.146-20.731 14.663-28.725 15.112a4.91 4.91 0 01-.243.006c-4.22 0-14.508-5.55-18.768-8.068v-14.11c1.667.007 5.236.034 9.213.128 3.705.09 7.817 1.858 11.002 4.73l.286.259 7.84-.002a2.259 2.259 0 012.256 2.255 2.259 2.259 0 01-2.256 2.257H27.998v2h14.403c1.38 0 2.597-.67 3.375-1.693l14.084-6.803a2.142 2.142 0 012.116.115A2.145 2.145 0 0163 45.454a2.19 2.19 0 01-1.114 1.906zM31.5 24.519h2v1.855h-2zM31.5 28.218h2v1.855h-2zM31.5 31.916h2v1.855h-2z"/></g></g></svg>