<svg xmlns="http://www.w3.org/2000/svg" viewBox="0 0 56 64" id="student"><rect width="100%" height="100%" fill="none"/><g class="currentLayer"><path d="M.12 64.005H55.6c.274-6.3-.18-16.753-4.07-21.728l-.14-.179-8.5-4.25c.185-.62.275-1.187.312-1.605a2.933 2.933 0 00-.207-1.397c-1.403-3.342-4.37-5.1-6.002-5.85.497-.997.818-2.069.973-3.163a2.72 2.72 0 001.91-1.961l.993-4.014a2.706 2.706 0 00-.313-2.067 2.71 2.71 0 00-.608-.69c2.797-6.327-1.888-12.293-2.144-12.607C32.73-.968 26.32.053 25.981.114c-9.25 1.928-12.82 8.988-10.805 17.267a2.71 2.71 0 00-.627 2.476l.998 4.018c.241.966.979 1.692 1.896 1.955a10.318 10.318 0 002.387 5.278v3.182c-13.275 6.77-4.864 2.45-15.502 7.81-.021.1-4.992 5.36-4.253 20.952l.045.953zm53.552-2H44.54v-3.82L50.58 44.42c3.025 5 3.137 14.547 3.092 17.586zM41.21 36.074c-.353 4.03-2.572 2.812-3.943 5.917-1.077-1.18-1.402-2.595-1.112-4.11.523-2.781-1.182-3.607-.76-6.53l.064-.067v-.009c.036-.04.372-.439.47-.565 3.612 1.568 5.351 4.485 5.28 5.364zm-19.38-3.168a10.315 10.315 0 005.879 1.842c2.05 0 3.998-.594 5.668-1.688.231 2.298 1.133 2.757.813 4.448-.06.314-.092.623-.112.927l-6.218 6.979-7.95-8.924 1.92-.998v-2.586zm-2.5-8.541v-3.87-6.797c.968-1.783 2.287-3.075 3.927-3.85 4.39 2.474 9.446 6.166 12.835 9.882-.003 4.733.014 4.746-.018 5.134l-.002.025c-.264 4.297-3.813 7.86-8.363 7.86-4.424 0-8.097-3.46-8.363-7.903a5.616 5.616 0 01-.016-.481zm-1.239 13.09l9.769 10.966 6.558-7.36c.15.43.36.835.6 1.228l-7.158 8.914-10.675-13.294.906-.454zm20.001-14.7v-3.089l.746-.851c.041 1.564.21-.282-.746 3.94zM26.352 2.08c.396.025 5.727-.807 9.94 3.722.166.207 3.595 4.607 2.217 9.42-.471-2.142-1.293-4.886-2.592-6.196l-1.42 1.408c1.282 1.293 2.125 5.233 2.446 7.275-5.884-6.13-13.473-10.01-13.577-10.076-.38.236-3.592.844-5.925 5.358l-.111.216v3.315l-.294.003C15.554 9.4 18.392 3.74 26.35 2.08zm-9.527 16.503l.505 2.036v2.14l-.84-3.38c-.122-.505.253-.696.335-.796zm-1.47 20.242L27.86 54.397l8.461-10.537c.92.82 1.363.937 3.314 1.936l-.658-2.223c-.167-.565.494-1.47.894-1.886a6.04 6.04 0 002.19-2.016l6.904 3.451-6.424 14.644v4.239H13.178v-4.24L6.752 43.125l8.602-4.3zm-10.217 5.6l6.04 13.762v3.819h-9.13c-.046-3.038.067-12.58 3.09-17.581z"/></g></svg>