<svg xmlns="http://www.w3.org/2000/svg" viewBox="0 0 64 47" id="book"><rect width="100%" height="100%" fill="none"/><g class="currentLayer"><g><path d="M7.983 6.588h20.033v1.5H7.983zM10.983 12.181h17.033v1.5H10.983zM7.983 17.774h20.033v1.5H7.983zM10.983 23.367h17.033v1.5H10.983zM7.983 28.959h20.033v1.5H7.983zM10.983 34.553h17.033v1.5H10.983zM35.483 6.588h20.033v1.5H35.483zM35.483 12.181h17.033v1.5H35.483zM35.483 17.774h20.033v1.5H35.483zM35.483 23.367h17.033v1.5H35.483zM35.483 28.959h20.033v1.5H35.483zM35.483 34.553h17.033v1.5H35.483z"/><path d="M62.75 4.88H60V.75a.75.75 0 00-.75-.75H36.83a5.8 5.8 0 00-5.08 2.953A5.802 5.802 0 0026.67 0H4.25a.75.75 0 00-.75.75v4.13H.75a.75.75 0 00-.75.75v40.26c0 .414.336.75.75.75h62a.75.75 0 00.75-.75V5.63a.75.75 0 00-.75-.75zM36.83 1.5H58.5v40.17H35.23c-1.032 0-2.063.435-2.73 1V5.82a4.306 4.306 0 014.33-4.32zM5 1.5h21.67a4.294 4.294 0 014.32 4.155c.002.032.005.134.01.165v36.847c-.665-.562-1.686-.997-2.72-.997H5V1.5zM1.5 6.38h2v36.04c0 .414.336.75.75.75h24.03a2.72 2.72 0 012.602 1.97H1.5V6.38zM62 45.14H32.619a2.71 2.71 0 012.611-1.97h24.02a.75.75 0 00.75-.75V6.38h2v38.76z"/></g></g></svg>